# Exported from Wings 3D 2.1.7
mtllib Sphere.mtl
o sphere1
#114 vertices, 224 faces
v 8.4190355e-2 0.20325350 -2.0889723e-18
v 7.7781746e-2 0.20325350 3.2218254e-2
v 5.9531571e-2 0.20325350 5.9531571e-2
v 3.2218254e-2 0.20325350 7.7781746e-2
v -2.9028010e-17 0.20325350 8.4190355e-2
v -3.2218254e-2 0.20325350 7.7781746e-2
v -5.9531571e-2 0.20325350 5.9531571e-2
v -7.7781746e-2 0.20325350 3.2218254e-2
v -8.4190355e-2 0.20325350 8.2213726e-18
v -7.7781746e-2 0.20325350 -3.2218254e-2
v -5.9531571e-2 0.20325350 -5.9531571e-2
v -3.2218254e-2 0.20325350 -7.7781746e-2
v -4.9648700e-17 0.20325350 -8.4190355e-2
v 3.2218254e-2 0.20325350 -7.7781746e-2
v 5.9531571e-2 0.20325350 -5.9531571e-2
v 7.7781746e-2 0.20325350 -3.2218254e-2
v 0.15556349 0.15556349 -2.0889723e-18
v 0.14372193 0.15556349 5.9531571e-2
v 0.11000000 0.15556349 0.11000000
v 5.9531571e-2 0.15556349 0.14372193
v -2.4657666e-17 0.15556349 0.15556349
v -5.9531571e-2 0.15556349 0.14372193
v -0.11000000 0.15556349 0.11000000
v -0.14372193 0.15556349 5.9531571e-2
v -0.15556349 0.15556349 1.6962061e-17
v -0.14372193 0.15556349 -5.9531571e-2
v -0.11000000 0.15556349 -0.11000000
v -5.9531571e-2 0.15556349 -0.14372193
v -6.2759732e-17 0.15556349 -0.15556349
v 5.9531571e-2 0.15556349 -0.14372193
v 0.11000000 0.15556349 -0.11000000
v 0.14372193 0.15556349 -5.9531571e-2
v 0.20325350 8.4190355e-2 -2.0889723e-18
v 0.18778175 8.4190355e-2 7.7781746e-2
v 0.14372193 8.4190355e-2 0.14372193
v 7.7781746e-2 8.4190355e-2 0.18778175
v -2.1737495e-17 8.4190355e-2 0.20325350
v -7.7781746e-2 8.4190355e-2 0.18778175
v -0.14372193 8.4190355e-2 0.14372193
v -0.18778175 8.4190355e-2 7.7781746e-2
v -0.20325350 8.4190355e-2 2.2802402e-17
v -0.18778175 8.4190355e-2 -7.7781746e-2
v -0.14372193 8.4190355e-2 -0.14372193
v -7.7781746e-2 8.4190355e-2 -0.18778175
v -7.1520244e-17 8.4190355e-2 -0.20325350
v 7.7781746e-2 8.4190355e-2 -0.18778175
v 0.14372193 8.4190355e-2 -0.14372193
v 0.18778175 8.4190355e-2 -7.7781746e-2
v 0.22000000 -1.2356179e-17 -2.0889723e-18
v 0.20325350 -1.2356179e-17 8.4190355e-2
v 0.15556349 -1.2356179e-17 0.15556349
v 8.4190355e-2 -1.2356179e-17 0.20325350
v -2.0712068e-17 -1.2356179e-17 0.22000000
v -8.4190355e-2 -1.2356179e-17 0.20325350
v -0.15556349 -1.2356179e-17 0.15556349
v -0.20325350 -1.2356179e-17 8.4190355e-2
v -0.22000000 -1.2356179e-17 2.4853257e-17
v -0.20325350 -1.2356179e-17 -8.4190355e-2
v -0.15556349 -1.2356179e-17 -0.15556349
v -8.4190355e-2 -1.2356179e-17 -0.20325350
v -7.4596527e-17 -1.2356179e-17 -0.22000000
v 8.4190355e-2 -1.2356179e-17 -0.20325350
v 0.15556349 -1.2356179e-17 -0.15556349
v 0.20325350 -1.2356179e-17 -8.4190355e-2
v 0.20325350 -8.4190355e-2 -2.0889723e-18
v 0.18778175 -8.4190355e-2 7.7781746e-2
v 0.14372193 -8.4190355e-2 0.14372193
v 7.7781746e-2 -8.4190355e-2 0.18778175
v -2.1737495e-17 -8.4190355e-2 0.20325350
v -7.7781746e-2 -8.4190355e-2 0.18778175
v -0.14372193 -8.4190355e-2 0.14372193
v -0.18778175 -8.4190355e-2 7.7781746e-2
v -0.20325350 -8.4190355e-2 2.2802402e-17
v -0.18778175 -8.4190355e-2 -7.7781746e-2
v -0.14372193 -8.4190355e-2 -0.14372193
v -7.7781746e-2 -8.4190355e-2 -0.18778175
v -7.1520244e-17 -8.4190355e-2 -0.20325350
v 7.7781746e-2 -8.4190355e-2 -0.18778175
v 0.14372193 -8.4190355e-2 -0.14372193
v 0.18778175 -8.4190355e-2 -7.7781746e-2
v 0.15556349 -0.15556349 -2.0889723e-18
v 0.14372193 -0.15556349 5.9531571e-2
v 0.11000000 -0.15556349 0.11000000
v 5.9531571e-2 -0.15556349 0.14372193
v -2.4657666e-17 -0.15556349 0.15556349
v -5.9531571e-2 -0.15556349 0.14372193
v -0.11000000 -0.15556349 0.11000000
v -0.14372193 -0.15556349 5.9531571e-2
v -0.15556349 -0.15556349 1.6962061e-17
v -0.14372193 -0.15556349 -5.9531571e-2
v -0.11000000 -0.15556349 -0.11000000
v -5.9531571e-2 -0.15556349 -0.14372193
v -6.2759732e-17 -0.15556349 -0.15556349
v 5.9531571e-2 -0.15556349 -0.14372193
v 0.11000000 -0.15556349 -0.11000000
v 0.14372193 -0.15556349 -5.9531571e-2
v 8.4190355e-2 -0.20325350 -2.0889723e-18
v 7.7781746e-2 -0.20325350 3.2218254e-2
v 5.9531571e-2 -0.20325350 5.9531571e-2
v 3.2218254e-2 -0.20325350 7.7781746e-2
v -2.9028010e-17 -0.20325350 8.4190355e-2
v -3.2218254e-2 -0.20325350 7.7781746e-2
v -5.9531571e-2 -0.20325350 5.9531571e-2
v -7.7781746e-2 -0.20325350 3.2218254e-2
v -8.4190355e-2 -0.20325350 8.2213726e-18
v -7.7781746e-2 -0.20325350 -3.2218254e-2
v -5.9531571e-2 -0.20325350 -5.9531571e-2
v -3.2218254e-2 -0.20325350 -7.7781746e-2
v -4.9648700e-17 -0.20325350 -8.4190355e-2
v 3.2218254e-2 -0.20325350 -7.7781746e-2
v 5.9531571e-2 -0.20325350 -5.9531571e-2
v 7.7781746e-2 -0.20325350 -3.2218254e-2
v -3.4183183e-17 0.22000000 -2.0889723e-18
v -3.4183183e-17 -0.22000000 -2.0889723e-18
vt 0.0000000e+0 0.16909174
vt 0.0000000e+0 0.84216948
vt 2.7755576e-17 0.51401059
vt 7.1337404e-3 0.25574736
vt 7.1337404e-3 0.42735497
vt 9.8631524e-3 8.3244176e-2
vt 9.8631524e-3 0.59985815
vt 1.1820057e-2 0.78181683
vt 1.2006661e-2 0.90253104
vt 3.0153771e-2 0.34155116
vt 3.0153771e-2 0.34155116
vt 3.4692702e-2 0.0000000e+0
vt 3.4692702e-2 0.68310233
vt 4.5683739e-2 0.73048061
vt 4.6188867e-2 0.95396255
vt 8.1100821e-2 0.17010539
vt 8.1100821e-2 0.51299694
vt 8.1924741e-2 0.84190958
vt 8.3461556e-2 0.24761262
vt 8.3461556e-2 0.43548971
vt 8.5185210e-2 9.2947808e-2
vt 8.5185210e-2 0.59015452
vt 8.7624563e-2 0.81282290
vt 8.7753950e-2 0.87096837
vt 9.2306128e-2 0.35246499
vt 9.2306128e-2 0.33063734
vt 9.5111410e-2 0.67202851
vt 9.5111410e-2 1.1073815e-2
vt 9.6550484e-2 0.69583595
vt 9.7687990e-2 0.98866192
vt 0.10394272 0.78807940
vt 0.10429275 0.89560963
vt 0.12846558 0.77143543
vt 0.12902965 0.91203695
vt 0.15463972 0.35576456
vt 0.15463972 0.32733776
vt 0.15504611 0.24566913
vt 0.15504611 0.43743320
vt 0.15577248 0.17077558
vt 0.15577248 0.51232675
vt 0.15649884 9.5882032e-2
vt 0.15649884 0.58722030
vt 0.15690523 1.4213400e-2
vt 0.15690523 0.66888893
vt 0.15697794 0.68310233
vt 0.15753232 0.76544805
vt 0.15786022 0.84155116
vt 0.15818813 0.91765428
vt 0.15874250 1.00000000
vt 0.18669079 0.77106538
vt 0.18725486 0.91166690
vt 0.21142770 0.78749270
vt 0.21177772 0.89502293
vt 0.21643354 0.35262498
vt 0.21643354 0.33047735
vt 0.21803246 0.69444041
vt 0.21916996 0.98726638
vt 0.21923883 0.67218850
vt 0.21923883 1.0913826e-2
vt 0.22635974 0.43449897
vt 0.22635974 0.24860336
vt 0.22796650 0.81213396
vt 0.22808340 0.58916379
vt 0.22808340 9.3938541e-2
vt 0.22809588 0.87027943
vt 0.23044413 0.51165655
vt 0.23044413 0.17144578
vt 0.23379571 0.84119275
vt 0.26953158 0.72913978
vt 0.27003671 0.95262172
vt 0.27685225 0.34155116
vt 0.27685225 0.34155116
vt 0.28139118 2.7755576e-17
vt 0.28139118 0.68310233
vt 0.30168180 0.42479534
vt 0.30168180 0.25830699
vt 0.30371379 0.78057128
vt 0.30390039 0.90128550
vt 0.30441121 8.5803804e-2
vt 0.30441121 0.59729852
vt 0.31154495 0.17245942
vt 0.31154495 0.51064290
vt 0.31154495 0.17245942
vt 0.31572045 0.84171017
vt 0.31572045 0.84093285
vt 0.31867869 8.5803804e-2
vt 0.32140811 0.25830699
vt 0.32761870 0.90230766
vt 0.32772711 0.78134861
vt 0.34169872 0.0000000e+0
vt 0.34623765 0.34155116
vt 0.36174338 0.73011337
vt 0.36191881 0.95407355
vt 0.39264577 0.17144578
vt 0.39500651 9.3938541e-2
vt 0.39673016 0.24860336
vt 0.39778033 0.84153729
vt 0.40351516 0.81245974
vt 0.40363039 0.87063198
vt 0.40385108 1.0913826e-2
vt 0.40665636 0.33047735
vt 0.41267486 0.69564396
vt 0.41398693 0.98791312
vt 0.41991210 0.78776837
vt 0.42019784 0.89527524
vt 0.44445704 0.77115305
vt 0.44498710 0.91162345
vt 0.46618467 1.4213400e-2
vt 0.46659106 9.5882032e-2
vt 0.46731743 0.17077558
vt 0.46804380 0.24566913
vt 0.46845018 0.32733776
vt 0.47292754 0.68310233
vt 0.47348258 0.76516052
vt 0.47380756 0.84118785
vt 0.47413253 0.91721519
vt 0.47468757 0.99927338
vt 0.50262801 0.77075226
vt 0.50315808 0.91122265
vt 0.52741727 0.78710046
vt 0.52770302 0.89460733
vt 0.52797850 1.1073815e-2
vt 0.53078378 0.33063734
vt 0.53362818 0.69446258
vt 0.53494025 0.98673175
vt 0.53790470 9.2947808e-2
vt 0.53962835 0.24761262
vt 0.54198908 0.17010539
vt 0.54398473 0.81174373
vt 0.54409996 0.86991597
vt 0.54983479 0.84083841
vt 0.58569630 0.72830216
vt 0.58587174 0.95226234
vt 0.58839720 5.5511151e-17
vt 0.59293613 0.34155116
vt 0.61322675 8.3244176e-2
vt 0.61595617 0.25574736
vt 0.61988801 0.90102709
vt 0.61999641 0.78006805
vt 0.62308991 0.17160126
vt 0.62308991 0.16909174
vt 0.63060587 8.4306979e-2
vt 0.63189467 0.84066553
vt 0.63292869 0.25773656
vt 0.65551020 0.0000000e+0
vt 0.65774999 0.34113231
vt 0.70452316 0.17091854
vt 0.70721505 9.3362922e-2
vt 0.70843437 0.24814383
vt 0.71668103 1.1010733e-2
vt 0.71826302 0.33005508
vt 0.77869698 1.4235951e-2
vt 0.77888491 9.5684097e-2
vt 0.77935332 0.17056616
vt 0.77982174 0.24544821
vt 0.78000967 0.32689636
vt 0.84044363 1.1077227e-2
vt 0.84202562 0.33012158
vt 0.85027228 9.2988485e-2
vt 0.85149159 0.24776939
vt 0.85418348 0.17021377
vt 0.90095665 1.6653345e-16
vt 0.90319645 0.34113231
vt 0.92577796 8.3395755e-2
vt 0.92810078 0.25682533
vt 0.93561674 0.16953105
vn 0.44254783 0.89674490 2.9305046e-16
vn 0.35310199 0.92408176 0.14625963
vn 0.31292857 0.89674490 0.31292857
vn 0.14625963 0.92408176 0.35310199
vn 1.1816551e-17 0.89674490 0.44254783
vn -0.14625963 0.92408176 0.35310199
vn -0.31292857 0.89674490 0.31292857
vn -0.35310199 0.92408176 0.14625963
vn -0.44254783 0.89674490 -1.0162234e-16
vn -0.35310199 0.92408176 -0.14625963
vn -0.31292857 0.89674490 -0.31292857
vn -0.14625963 0.92408176 -0.35310199
vn -1.1816551e-17 0.89674490 -0.44254783
vn 0.14625963 0.92408176 -0.35310199
vn 0.31292857 0.89674490 -0.31292857
vn 0.35310199 0.92408176 -0.14625963
vn 0.70658450 0.70762868 2.1432970e-17
vn 0.65279895 0.70762868 0.27039818
vn 0.49963069 0.70762868 0.49963069
vn 0.27039818 0.70762868 0.65279895
vn -7.1443235e-18 0.70762868 0.70658450
vn -0.27039818 0.70762868 0.65279895
vn -0.49963069 0.70762868 0.49963069
vn -0.65279895 0.70762868 0.27039818
vn -0.70658450 0.70762868 2.5005132e-16
vn -0.65279895 0.70762868 -0.27039818
vn -0.49963069 0.70762868 -0.49963069
vn -0.27039818 0.70762868 -0.65279895
vn -1.4288647e-17 0.70762868 -0.70658450
vn 0.27039818 0.70762868 -0.65279895
vn 0.49963069 0.70762868 -0.49963069
vn 0.65279895 0.70762868 -0.27039818
vn 0.92368212 0.38315969 -1.0424817e-16
vn 0.85337100 0.38315969 0.35347784
vn 0.65314189 0.38315969 0.65314189
vn 0.35347784 0.38315969 0.85337100
vn -2.1568586e-17 0.38315969 0.92368212
vn -0.35347784 0.38315969 0.85337100
vn -0.65314189 0.38315969 0.65314189
vn -0.85337100 0.38315969 0.35347784
vn -0.92368212 0.38315969 1.5816963e-16
vn -0.85337100 0.38315969 -0.35347784
vn -0.65314189 0.38315969 -0.65314189
vn -0.35347784 0.38315969 -0.85337100
vn -1.3660105e-16 0.38315969 -0.92368212
vn 0.35347784 0.38315969 -0.85337100
vn 0.65314189 0.38315969 -0.65314189
vn 0.85337100 0.38315969 -0.35347784
vn 1.00000000 7.2082126e-18 -1.6578889e-16
vn 0.92387953 -3.9645169e-17 0.38268343
vn 0.70710678 7.2082126e-17 0.70710678
vn 0.38268343 1.4416425e-17 0.92387953
vn -2.8832850e-17 2.8832850e-17 1.00000000
vn -0.38268343 3.6041063e-18 0.92387953
vn -0.70710678 0.0000000e+0 0.70710678
vn -0.92387953 -2.5228744e-17 0.38268343
vn -1.00000000 1.4416425e-17 1.7299710e-16
vn -0.92387953 -2.8832850e-17 -0.38268343
vn -0.70710678 7.2082126e-18 -0.70710678
vn -0.38268343 3.2436957e-17 -0.92387953
vn -4.9736667e-16 7.2082126e-18 -1.00000000
vn 0.38268343 -7.2082126e-18 -0.92387953
vn 0.70710678 -5.7665700e-17 -0.70710678
vn 0.92387953 5.0457488e-17 -0.38268343
vn 0.92368212 -0.38315969 -1.9771204e-16
vn 0.85337100 -0.38315969 0.35347784
vn 0.65314189 -0.38315969 0.65314189
vn 0.35347784 -0.38315969 0.85337100
vn -1.4379058e-17 -0.38315969 0.92368212
vn -0.35347784 -0.38315969 0.85337100
vn -0.65314189 -0.38315969 0.65314189
vn -0.85337100 -0.38315969 0.35347784
vn -0.92368212 -0.38315969 1.4379058e-16
vn -0.85337100 -0.38315969 -0.35347784
vn -0.65314189 -0.38315969 -0.65314189
vn -0.35347784 -0.38315969 -0.85337100
vn -1.4019581e-16 -0.38315969 -0.92368212
vn 0.35347784 -0.38315969 -0.85337100
vn 0.65314189 -0.38315969 -0.65314189
vn 0.85337100 -0.38315969 -0.35347784
vn 0.70658450 -0.70762868 -1.5717512e-16
vn 0.65279895 -0.70762868 0.27039818
vn 0.49963069 -0.70762868 0.49963069
vn 0.27039818 -0.70762868 0.65279895
vn -7.1443235e-18 -0.70762868 0.70658450
vn -0.27039818 -0.70762868 0.65279895
vn -0.49963069 -0.70762868 0.49963069
vn -0.65279895 -0.70762868 0.27039818
vn -0.70658450 -0.70762868 9.6448367e-17
vn -0.65279895 -0.70762868 -0.27039818
vn -0.49963069 -0.70762868 -0.49963069
vn -0.27039818 -0.70762868 -0.65279895
vn -3.5721617e-18 -0.70762868 -0.70658450
vn 0.27039818 -0.70762868 -0.65279895
vn 0.49963069 -0.70762868 -0.49963069
vn 0.65279895 -0.70762868 -0.27039818
vn 0.44254783 -0.89674490 3.4976991e-16
vn 0.35310199 -0.92408176 0.14625963
vn 0.31292857 -0.89674490 0.31292857
vn 0.14625963 -0.92408176 0.35310199
vn 4.7266204e-18 -0.89674490 0.44254783
vn -0.14625963 -0.92408176 0.35310199
vn -0.31292857 -0.89674490 0.31292857
vn -0.35310199 -0.92408176 0.14625963
vn -0.44254783 -0.89674490 3.3322674e-16
vn -0.35310199 -0.92408176 -0.14625963
vn -0.31292857 -0.89674490 -0.31292857
vn -0.14625963 -0.92408176 -0.35310199
vn -7.0899306e-18 -0.89674490 -0.44254783
vn 0.14625963 -0.92408176 -0.35310199
vn 0.31292857 -0.89674490 -0.31292857
vn 0.35310199 -0.92408176 -0.14625963
vn -1.4160320e-17 1.00000000 -1.3717810e-17
vn -1.2390280e-17 -1.00000000 -1.4602830e-17
g sphere1_sphere1_auv
usemtl sphere1_auv
s 1
f 1/131/1 18/139/18 17/143/17
f 1/131/1 32/138/32 16/130/16
f 1/131/1 113/115/113 2/129/2
f 2/129/2 18/139/18 1/131/1
f 2/129/2 113/115/113 3/120/3
f 3/120/3 18/139/18 2/129/2
f 3/120/3 20/124/20 19/132/19
f 3/120/3 113/115/113 4/118/4
f 4/118/4 20/124/20 3/120/3
f 4/118/4 113/115/113 5/114/5
f 5/114/5 20/124/20 4/118/4
f 5/114/5 22/102/22 21/113/21
f 5/114/5 113/115/113 6/106/6
f 6/106/6 22/102/22 5/114/5
f 6/106/6 113/115/113 7/104/7
f 7/104/7 22/102/22 6/106/6
f 7/104/7 24/89/24 23/92/23
f 7/104/7 113/115/113 8/98/8
f 8/98/8 24/89/24 7/104/7
f 8/98/8 113/115/113 9/97/9
f 9/97/9 24/89/24 8/98/8
f 9/97/9 26/88/26 25/84/25
f 9/97/9 113/115/113 10/99/10
f 10/99/10 26/88/26 9/97/9
f 10/99/10 113/115/113 11/105/11
f 11/105/11 26/88/26 10/99/10
f 11/105/11 28/103/28 27/93/27
f 11/105/11 113/115/113 12/107/12
f 12/107/12 28/103/28 11/105/11
f 12/107/12 113/115/113 13/116/13
f 13/116/13 28/103/28 12/107/12
f 13/116/13 30/125/30 29/117/29
f 13/116/13 113/115/113 14/119/14
f 14/119/14 30/125/30 13/116/13
f 14/119/14 113/115/113 15/121/15
f 15/121/15 30/125/30 14/119/14
f 15/121/15 32/138/32 31/133/31
f 15/121/15 113/115/113 16/130/16
f 16/130/16 32/138/32 15/121/15
f 16/130/16 113/115/113 1/131/1
f 17/143/17 32/138/32 1/131/1
f 17/36/17 33/37/33 32/55/32
f 18/26/18 33/37/33 17/36/17
f 18/26/18 35/4/35 34/19/34
f 19/132/19 18/139/18 3/120/3
f 19/11/19 35/4/35 18/26/18
f 20/158/20 35/165/35 19/163/19
f 20/158/20 37/155/37 36/160/36
f 21/113/21 20/124/20 5/114/5
f 21/156/21 37/155/37 20/158/20
f 22/151/22 37/155/37 21/156/21
f 22/151/22 39/144/39 38/149/38
f 23/92/23 22/102/22 7/104/7
f 23/146/23 39/144/39 22/151/22
f 24/58/24 39/80/39 23/74/23
f 24/58/24 41/42/41 40/63/40
f 25/84/25 24/89/24 9/97/9
f 25/44/25 41/42/41 24/58/24
f 26/27/26 41/42/41 25/44/25
f 26/27/26 43/7/43 42/22/42
f 27/93/27 26/88/26 11/105/11
f 27/13/27 43/7/43 26/27/26
f 28/123/28 43/137/43 27/135/27
f 28/123/28 45/111/45 44/127/44
f 29/117/29 28/103/28 13/116/13
f 29/112/29 45/111/45 28/123/28
f 30/101/30 45/111/45 29/112/29
f 30/101/30 47/87/47 46/96/46
f 31/133/31 30/125/30 15/121/15
f 31/91/31 47/87/47 30/101/30
f 32/55/32 33/37/33 48/61/48
f 32/55/32 47/76/47 31/71/31
f 33/37/33 50/16/50 49/39/49
f 33/37/33 64/67/64 48/61/48
f 34/19/34 33/37/33 18/26/18
f 34/19/34 50/16/50 33/37/33
f 35/4/35 50/16/50 34/19/34
f 35/165/35 52/161/52 51/166/51
f 36/160/36 35/165/35 20/158/20
f 36/160/36 52/161/52 35/165/35
f 37/155/37 52/161/52 36/160/36
f 37/155/37 54/147/54 53/154/53
f 38/149/38 37/155/37 22/151/22
f 38/149/38 54/147/54 37/155/37
f 39/144/39 54/147/54 38/149/38
f 39/80/39 56/66/56 55/82/55
f 40/63/40 39/80/39 24/58/24
f 40/63/40 56/66/56 39/80/39
f 41/42/41 56/66/56 40/63/40
f 41/42/41 58/17/58 57/40/57
f 42/22/42 41/42/41 26/27/26
f 42/22/42 58/17/58 41/42/41
f 43/7/43 58/17/58 42/22/42
f 43/137/43 60/128/60 59/141/59
f 44/127/44 43/137/43 28/123/28
f 44/127/44 60/128/60 43/137/43
f 45/111/45 60/128/60 44/127/44
f 45/111/45 62/94/62 61/110/61
f 46/96/46 45/111/45 30/101/30
f 46/96/46 62/94/62 45/111/45
f 47/87/47 62/94/62 46/96/46
f 47/76/47 64/67/64 63/81/63
f 48/61/48 47/76/47 32/55/32
f 48/61/48 64/67/64 47/76/47
f 49/39/49 64/67/64 33/37/33
f 49/39/49 65/41/65 64/67/64
f 50/16/50 65/41/65 49/39/49
f 50/16/50 67/6/67 66/21/66
f 51/1/51 50/16/50 35/4/35
f 51/1/51 67/6/67 50/16/50
f 52/161/52 67/164/67 51/166/51
f 52/161/52 69/153/69 68/159/68
f 53/154/53 52/161/52 37/155/37
f 53/154/53 69/153/69 52/161/52
f 54/147/54 69/153/69 53/154/53
f 54/147/54 71/142/71 70/148/70
f 55/140/55 54/147/54 39/144/39
f 55/140/55 71/142/71 54/147/54
f 56/66/56 71/75/71 55/82/55
f 56/66/56 73/38/73 72/60/72
f 57/40/57 56/66/56 41/42/41
f 57/40/57 73/38/73 56/66/56
f 58/17/58 73/38/73 57/40/57
f 58/17/58 75/5/75 74/20/74
f 59/3/59 58/17/58 43/7/43
f 59/3/59 75/5/75 58/17/58
f 60/128/60 75/136/75 59/141/59
f 60/128/60 77/109/77 76/126/76
f 61/110/61 60/128/60 45/111/45
f 61/110/61 77/109/77 60/128/60
f 62/94/62 77/109/77 61/110/61
f 62/94/62 79/86/79 78/95/78
f 63/83/63 62/94/62 47/87/47
f 63/83/63 79/86/79 62/94/62
f 64/67/64 65/41/65 80/64/80
f 64/67/64 79/79/79 63/81/63
f 65/41/65 82/28/82 81/43/81
f 65/41/65 96/59/96 80/64/80
f 66/21/66 65/41/65 50/16/50
f 66/21/66 82/28/82 65/41/65
f 67/6/67 82/28/82 66/21/66
f 67/164/67 84/157/84 83/162/83
f 68/159/68 67/164/67 52/161/52
f 68/159/68 84/157/84 67/164/67
f 69/153/69 84/157/84 68/159/68
f 69/153/69 86/150/86 85/152/85
f 70/148/70 69/153/69 54/147/54
f 70/148/70 86/150/86 69/153/69
f 71/142/71 86/150/86 70/148/70
f 71/75/71 88/54/88 87/72/87
f 72/60/72 71/75/71 56/66/56
f 72/60/72 88/54/88 71/75/71
f 73/38/73 88/54/88 72/60/72
f 73/38/73 90/25/90 89/35/89
f 74/20/74 73/38/73 58/17/58
f 74/20/74 90/25/90 73/38/73
f 75/5/75 90/25/90 74/20/74
f 75/136/75 92/122/92 91/134/91
f 76/126/76 75/136/75 60/128/60
f 76/126/76 92/122/92 75/136/75
f 77/109/77 92/122/92 76/126/76
f 77/109/77 94/100/94 93/108/93
f 78/95/78 77/109/77 62/94/62
f 78/95/78 94/100/94 77/109/77
f 79/86/79 94/100/94 78/95/78
f 79/79/79 96/59/96 95/73/95
f 80/64/80 79/79/79 64/67/64
f 80/64/80 96/59/96 79/79/79
f 81/43/81 96/59/96 65/41/65
f 81/2/81 97/18/97 96/9/96
f 82/8/82 97/18/97 81/2/81
f 82/8/82 99/31/99 98/23/98
f 83/12/83 82/28/82 67/6/67
f 83/14/83 99/31/99 82/8/82
f 84/29/84 99/31/99 83/14/83
f 84/29/84 101/46/101 100/33/100
f 85/152/85 84/157/84 69/153/69
f 85/45/85 101/46/101 84/29/84
f 86/56/86 101/46/101 85/45/85
f 86/56/86 103/52/103 102/50/102
f 87/145/87 86/150/86 71/142/71
f 87/69/87 103/52/103 86/56/86
f 88/77/88 103/52/103 87/69/87
f 88/77/88 105/68/105 104/62/104
f 89/35/89 88/54/88 73/38/73
f 89/85/89 105/68/105 88/77/88
f 90/78/90 105/68/105 89/85/89
f 90/78/90 107/53/107 106/65/106
f 91/10/91 90/25/90 75/5/75
f 91/70/91 107/53/107 90/78/90
f 92/57/92 107/53/107 91/70/91
f 92/57/92 109/48/109 108/51/108
f 93/108/93 92/122/92 77/109/77
f 93/49/93 109/48/109 92/57/92
f 94/30/94 109/48/109 93/49/93
f 94/30/94 111/32/111 110/34/110
f 95/90/95 94/100/94 79/86/79
f 95/15/95 111/32/111 94/30/94
f 96/9/96 97/18/97 112/24/112
f 96/9/96 111/32/111 95/15/95
f 97/18/97 114/47/114 112/24/112
f 98/23/98 97/18/97 82/8/82
f 98/23/98 114/47/114 97/18/97
f 99/31/99 114/47/114 98/23/98
f 100/33/100 99/31/99 84/29/84
f 100/33/100 114/47/114 99/31/99
f 101/46/101 114/47/114 100/33/100
f 102/50/102 101/46/101 86/56/86
f 102/50/102 114/47/114 101/46/101
f 103/52/103 114/47/114 102/50/102
f 104/62/104 103/52/103 88/77/88
f 104/62/104 114/47/114 103/52/103
f 105/68/105 114/47/114 104/62/104
f 106/65/106 105/68/105 90/78/90
f 106/65/106 114/47/114 105/68/105
f 107/53/107 114/47/114 106/65/106
f 108/51/108 107/53/107 92/57/92
f 108/51/108 114/47/114 107/53/107
f 109/48/109 114/47/114 108/51/108
f 110/34/110 109/48/109 94/30/94
f 110/34/110 114/47/114 109/48/109
f 111/32/111 114/47/114 110/34/110
f 112/24/112 111/32/111 96/9/96
f 112/24/112 114/47/114 111/32/111
